<svg xmlns="http://www.w3.org/2000/svg" width="120" height="120" viewBox="0 0 24 24"
     fill="black" stroke="black" stroke-width="16" stroke-linecap="round" stroke-linejoin="round"
     class="lucide lucide-medal-icon lucide-medal">

  <!-- Medal Paths (yellow fill, black stroke) -->
  <path fill="#FFD700" stroke="currentColor" stroke-width="2" d="M7.21 15 2.66 7.14a2 2 0 0 1 .13-2.2L4.4 2.8A2 2 0 0 1 6 2h12a2 2 0 0 1 1.6.8l1.6 2.14a2 2 0 0 1 .14 2.2L16.79 15" />
  <path fill="#FFD700" stroke="currentColor" stroke-width="2" d="M11 12 5.12 2.2" />
  <path fill="#FFD700" stroke="currentColor" stroke-width="2" d="m13 12 5.88-9.8" />
  <path fill="#FFD700" stroke="currentColor" stroke-width="2" d="M8 7h8" />
  <circle cx="12" cy="17" r="5" fill="#FFD700" stroke="currentColor" stroke-width="2" />

  <!-- INSANELY BOLD Number 2 -->
  <path fill="black" stroke="black" stroke-width="16" stroke-linecap="round" stroke-linejoin="round"
        transform="translate(8, 13) scale(0.03)"
        d="M144,32V224a12,12,0,0,1-24,0V54.417L90.6543,73.97168A11.99986,11.99986,0,1,1,77.3457,54l48-31.98584A11.99993,11.99993,0,0,1,144,32Z" />
</svg>
